<svg width="512" height="512" viewBox="0 0 512 512" fill="none" xmlns="http://www.w3.org/2000/svg">
<path d="M72 264V232C72 224.548 73.735 217.199 77.0675 210.534C80.4 203.869 85.2386 198.071 91.2 193.6V193.6C99.5086 187.369 109.614 184 120 184H144V264H72Z" fill="#EA9D2D" id="id_129"></path>
<path d="M72 264H440V462C440 468.896 437.261 475.509 432.385 480.385C427.509 485.261 420.896 488 414 488H98C94.5856 488 91.2047 487.327 88.0502 486.021C84.8958 484.714 82.0296 482.799 79.6152 480.385C74.7393 475.509 72 468.896 72 462V264Z" fill="#EA9D2D" id="id_130"></path>
<path d="M392 336H120L72 264H440L392 336Z" fill="#97661D" id="id_131"></path>
<path d="M280 320H232V368H280V320Z" fill="#D18D28" id="id_132"></path>
<path d="M352 24H128V336H352V24Z" fill="#EAEAE8" id="id_133"></path>
<path d="M240 184C275.346 184 304 155.346 304 120C304 84.6538 275.346 56 240 56C204.654 56 176 84.6538 176 120C176 155.346 204.654 184 240 184Z" fill="#00d5ff" id="id_134"></path>
<path d="M280 168V169.97C268.646 179.052 254.539 184 240 184C225.461 184 211.354 179.052 200 169.97V168L203.44 157.68C204.767 153.696 207.314 150.231 210.721 147.775C214.128 145.32 218.221 143.999 222.42 144H257.58C261.779 143.999 265.872 145.32 269.279 147.775C272.686 150.231 275.233 153.696 276.56 157.68L280 168Z" fill="#2CBFF4" id="id_135"></path>
<path d="M256 104C256 95.1634 248.837 88 240 88C231.163 88 224 95.1634 224 104V128C224 136.837 231.163 144 240 144C248.837 144 256 136.837 256 128V104Z" fill="#F6BB92" id="id_136"></path>
<path d="M256 104L239.589 109.47C234.562 111.146 229.299 112 224 112V112V104C224 99.7565 225.686 95.6869 228.686 92.6863C231.687 89.6857 235.757 88 240 88V88C244.243 88 248.313 89.6857 251.314 92.6863C254.314 95.6869 256 99.7565 256 104Z" fill="#533222" id="id_137"></path>
<path d="M280 168V169.97C268.646 179.052 254.539 184 240 184C225.461 184 211.354 179.052 200 169.97V168L203.44 157.68C204.767 153.696 207.314 150.231 210.721 147.775C214.128 145.32 218.221 143.999 222.42 144H257.58C261.779 143.999 265.872 145.32 269.279 147.775C272.686 150.231 275.233 153.696 276.56 157.68L280 168Z" fill="#02A437" id="id_138"></path>
<path d="M264 224H216C213.878 224 211.843 223.157 210.343 221.657C208.843 220.157 208 218.122 208 216C208 213.878 208.843 211.843 210.343 210.343C211.843 208.843 213.878 208 216 208H264C266.122 208 268.157 208.843 269.657 210.343C271.157 211.843 272 213.878 272 216C272 218.122 271.157 220.157 269.657 221.657C268.157 223.157 266.122 224 264 224Z" fill="#A8A8A8" id="id_139"></path>
<path d="M200 256H168C165.878 256 163.843 255.157 162.343 253.657C160.843 252.157 160 250.122 160 248C160 245.878 160.843 243.843 162.343 242.343C163.843 240.843 165.878 240 168 240H200C202.122 240 204.157 240.843 205.657 242.343C207.157 243.843 208 245.878 208 248C208 250.122 207.157 252.157 205.657 253.657C204.157 255.157 202.122 256 200 256Z" fill="#A8A8A8" id="id_140"></path>
<path d="M200 288H168C165.878 288 163.843 287.157 162.343 285.657C160.843 284.157 160 282.122 160 280C160 277.878 160.843 275.843 162.343 274.343C163.843 272.843 165.878 272 168 272H200C202.122 272 204.157 272.843 205.657 274.343C207.157 275.843 208 277.878 208 280C208 282.122 207.157 284.157 205.657 285.657C204.157 287.157 202.122 288 200 288Z" fill="#A8A8A8" id="id_141"></path>
<path d="M320 256H256C253.878 256 251.843 255.157 250.343 253.657C248.843 252.157 248 250.122 248 248C248 245.878 248.843 243.843 250.343 242.343C251.843 240.843 253.878 240 256 240H320C322.122 240 324.157 240.843 325.657 242.343C327.157 243.843 328 245.878 328 248C328 250.122 327.157 252.157 325.657 253.657C324.157 255.157 322.122 256 320 256Z" fill="#A8A8A8" id="id_142"></path>
<path d="M320 288H256C253.878 288 251.843 287.157 250.343 285.657C248.843 284.157 248 282.122 248 280C248 277.878 248.843 275.843 250.343 274.343C251.843 272.843 253.878 272 256 272H320C322.122 272 324.157 272.843 325.657 274.343C327.157 275.843 328 277.878 328 280C328 282.122 327.157 284.157 325.657 285.657C324.157 287.157 322.122 288 320 288Z" fill="#A8A8A8" id="id_143"></path>
<path d="M440 264V232C440 224.548 438.265 217.199 434.932 210.534C431.6 203.869 426.761 198.071 420.8 193.6V193.6C412.491 187.369 402.386 184 392 184H368V264H440Z" fill="#EA9D2D" id="id_144"></path>
<path d="M384 48H352V336H384V48Z" fill="#A8A8A8" id="id_145"></path>
<path d="M128 464H120C117.878 464 115.843 463.157 114.343 461.657C112.843 460.157 112 458.122 112 456C112 453.878 112.843 451.843 114.343 450.343C115.843 448.843 117.878 448 120 448H128C130.122 448 132.157 448.843 133.657 450.343C135.157 451.843 136 453.878 136 456C136 458.122 135.157 460.157 133.657 461.657C132.157 463.157 130.122 464 128 464Z" fill="#C38325" id="id_146"></path>
<path d="M192 464H160C157.878 464 155.843 463.157 154.343 461.657C152.843 460.157 152 458.122 152 456C152 453.878 152.843 451.843 154.343 450.343C155.843 448.843 157.878 448 160 448H192C194.122 448 196.157 448.843 197.657 450.343C199.157 451.843 200 453.878 200 456C200 458.122 199.157 460.157 197.657 461.657C196.157 463.157 194.122 464 192 464Z" fill="#C38325" id="id_147"></path>
<path d="M98 496H414C423.014 495.99 431.656 492.405 438.031 486.031C444.405 479.656 447.99 471.014 448 462V232C448 217.148 442.1 202.904 431.598 192.402C421.096 181.9 406.852 176 392 176V48C392 45.8783 391.157 43.8434 389.657 42.3431C388.157 40.8429 386.122 40 384 40H360V24C360 21.8783 359.157 19.8434 357.657 18.3431C356.157 16.8429 354.122 16 352 16H128C125.878 16 123.843 16.8429 122.343 18.3431C120.843 19.8434 120 21.8783 120 24V176C105.148 176 90.9041 181.9 80.402 192.402C69.9 202.904 64 217.148 64 232V462C64.0101 471.014 67.5954 479.656 73.9695 486.031C80.3435 492.405 88.9857 495.99 98 496V496ZM392 192C402.609 192 412.783 196.214 420.284 203.716C427.786 211.217 432 221.391 432 232V256H392V192ZM392 272H425.052L392 321.578V272ZM360 56H376V328H360V56ZM136 32H344V328H136V32ZM272 344V360H240V344H272ZM80 232C80 221.391 84.2143 211.217 91.7157 203.716C99.2172 196.214 109.391 192 120 192V256H80V232ZM120 272V321.578L86.948 272H120ZM80 290.422L113.344 340.438C114.075 341.534 115.064 342.432 116.225 343.053C117.387 343.675 118.683 344 120 344H224V368C224 370.122 224.843 372.157 226.343 373.657C227.843 375.157 229.878 376 232 376H280C282.122 376 284.157 375.157 285.657 373.657C287.157 372.157 288 370.122 288 368V344H392C393.317 344 394.613 343.675 395.775 343.053C396.936 342.432 397.925 341.534 398.656 340.438L432 290.422V462C431.994 466.772 430.096 471.347 426.722 474.722C423.347 478.096 418.772 479.994 414 480H98C93.2278 479.994 88.6527 478.096 85.2782 474.722C81.9038 471.347 80.0056 466.772 80 462V290.422Z" fill="black" id="id_148"></path>
<path d="M240 192C254.24 192 268.161 187.777 280.001 179.866C291.841 171.954 301.07 160.71 306.519 147.553C311.969 134.397 313.395 119.92 310.617 105.954C307.838 91.9869 300.981 79.1577 290.912 69.0883C280.842 59.019 268.013 52.1616 254.047 49.3835C240.08 46.6054 225.603 48.0312 212.447 53.4807C199.291 58.9302 188.046 68.1586 180.134 79.999C172.223 91.8393 168 105.76 168 120C168.021 139.089 175.614 157.39 189.112 170.888C202.61 184.386 220.911 191.979 240 192V192ZM240 176C228.93 176.012 218.107 172.723 208.915 166.554L211.03 160.206C211.825 157.815 213.352 155.736 215.396 154.263C217.44 152.789 219.896 151.998 222.415 152H257.585C260.104 151.998 262.56 152.789 264.604 154.262C266.647 155.735 268.175 157.814 268.969 160.205L271.085 166.554C261.893 172.723 251.07 176.012 240 176V176ZM242.12 117.06L248 115.1V128C248 130.122 247.157 132.157 245.657 133.657C244.157 135.157 242.122 136 240 136C237.878 136 235.843 135.157 234.343 133.657C232.843 132.157 232 130.122 232 128V119.428C235.438 118.947 238.825 118.155 242.12 117.06ZM232.04 103.211V103.201C232.049 103.107 232.068 103.016 232.08 102.923C232.103 102.758 232.123 102.592 232.156 102.43C232.177 102.322 232.208 102.217 232.234 102.11C232.269 101.968 232.301 101.824 232.343 101.685C232.377 101.575 232.418 101.469 232.456 101.361C232.502 101.229 232.547 101.097 232.599 100.969C232.644 100.861 232.699 100.757 232.744 100.651C232.8 100.529 232.856 100.406 232.919 100.287C232.974 100.187 233.034 100.082 233.093 99.98C233.152 99.878 233.228 99.751 233.3 99.64C233.372 99.529 233.433 99.447 233.5 99.351C233.567 99.255 233.655 99.138 233.737 99.035C233.819 98.932 233.886 98.853 233.963 98.765C234.04 98.677 234.138 98.565 234.228 98.473C234.318 98.381 234.393 98.306 234.477 98.225C234.561 98.144 234.671 98.045 234.77 97.958C234.869 97.871 234.947 97.807 235.038 97.735C235.129 97.663 235.251 97.572 235.359 97.494C235.467 97.416 235.547 97.361 235.644 97.294C235.757 97.22 235.874 97.151 235.991 97.083C236.091 97.025 236.191 96.967 236.291 96.913C236.414 96.849 236.54 96.791 236.665 96.733C236.765 96.686 236.865 96.633 236.974 96.594C237.106 96.54 237.243 96.494 237.379 96.446C237.479 96.41 237.584 96.371 237.689 96.339C237.835 96.295 237.989 96.26 238.134 96.225C238.234 96.2 238.334 96.172 238.434 96.152C238.602 96.118 238.775 96.096 238.947 96.073C239.033 96.062 239.118 96.045 239.205 96.036C239.466 96.01 239.73 95.996 239.998 95.996C240.287 95.9967 240.576 96.013 240.863 96.045C240.957 96.055 241.047 96.074 241.14 96.087C241.329 96.114 241.518 96.143 241.703 96.187C241.81 96.211 241.914 96.241 242.019 96.269C242.185 96.312 242.35 96.357 242.511 96.41C242.62 96.446 242.725 96.488 242.831 96.528C242.985 96.586 243.137 96.647 243.285 96.715C243.385 96.762 243.493 96.815 243.595 96.864C243.739 96.9367 243.88 97.0137 244.019 97.095C244.119 97.153 244.219 97.211 244.311 97.273C244.447 97.361 244.58 97.454 244.711 97.549C244.801 97.615 244.892 97.68 244.979 97.749C245.109 97.849 245.233 97.964 245.357 98.076C245.435 98.146 245.516 98.215 245.591 98.289C245.723 98.417 245.846 98.554 245.968 98.689C246.019 98.745 246.068 98.798 246.121 98.856L237.059 101.877C235.416 102.426 233.739 102.872 232.04 103.211V103.211ZM240 64C250.514 63.9914 260.818 66.9454 269.731 72.5234C278.643 78.1014 285.804 86.0777 290.392 95.5381C294.98 104.999 296.809 115.56 295.671 126.013C294.532 136.465 290.472 146.385 283.955 154.636C282.305 149.971 279.446 145.828 275.67 142.63C271.894 139.433 267.337 137.295 262.464 136.436C263.481 133.74 264.001 130.882 264 128V104C264 97.6348 261.471 91.5303 256.971 87.0295C252.47 82.5286 246.365 80 240 80C233.635 80 227.53 82.5286 223.029 87.0295C218.529 91.5303 216 97.6348 216 104V128C215.998 130.883 216.519 133.742 217.536 136.439C212.663 137.298 208.106 139.436 204.33 142.634C200.554 145.831 197.694 149.974 196.044 154.639C189.526 146.388 185.465 136.468 184.326 126.015C183.187 115.562 185.016 104.999 189.605 95.5383C194.193 86.0774 201.354 78.1006 210.267 72.5226C219.181 66.9445 229.485 63.9908 240 64V64Z" fill="black" id="id_149"></path>
<path d="M272 216C272 213.878 271.157 211.843 269.657 210.343C268.157 208.843 266.122 208 264 208H216C213.878 208 211.843 208.843 210.343 210.343C208.843 211.843 208 213.878 208 216C208 218.122 208.843 220.157 210.343 221.657C211.843 223.157 213.878 224 216 224H264C266.122 224 268.157 223.157 269.657 221.657C271.157 220.157 272 218.122 272 216Z" fill="black" id="id_150"></path>
<path d="M200 240H168C165.878 240 163.843 240.843 162.343 242.343C160.843 243.843 160 245.878 160 248C160 250.122 160.843 252.157 162.343 253.657C163.843 255.157 165.878 256 168 256H200C202.122 256 204.157 255.157 205.657 253.657C207.157 252.157 208 250.122 208 248C208 245.878 207.157 243.843 205.657 242.343C204.157 240.843 202.122 240 200 240Z" fill="black" id="id_151"></path>
<path d="M200 272H168C165.878 272 163.843 272.843 162.343 274.343C160.843 275.843 160 277.878 160 280C160 282.122 160.843 284.157 162.343 285.657C163.843 287.157 165.878 288 168 288H200C202.122 288 204.157 287.157 205.657 285.657C207.157 284.157 208 282.122 208 280C208 277.878 207.157 275.843 205.657 274.343C204.157 272.843 202.122 272 200 272Z" fill="black" id="id_152"></path>
<path d="M320 240H256C253.878 240 251.843 240.843 250.343 242.343C248.843 243.843 248 245.878 248 248C248 250.122 248.843 252.157 250.343 253.657C251.843 255.157 253.878 256 256 256H320C322.122 256 324.157 255.157 325.657 253.657C327.157 252.157 328 250.122 328 248C328 245.878 327.157 243.843 325.657 242.343C324.157 240.843 322.122 240 320 240Z" fill="black" id="id_153"></path>
<path d="M320 272H256C253.878 272 251.843 272.843 250.343 274.343C248.843 275.843 248 277.878 248 280C248 282.122 248.843 284.157 250.343 285.657C251.843 287.157 253.878 288 256 288H320C322.122 288 324.157 287.157 325.657 285.657C327.157 284.157 328 282.122 328 280C328 277.878 327.157 275.843 325.657 274.343C324.157 272.843 322.122 272 320 272Z" fill="black" id="id_154"></path>
<path d="M120 464H128C130.122 464 132.157 463.157 133.657 461.657C135.157 460.157 136 458.122 136 456C136 453.878 135.157 451.843 133.657 450.343C132.157 448.843 130.122 448 128 448H120C117.878 448 115.843 448.843 114.343 450.343C112.843 451.843 112 453.878 112 456C112 458.122 112.843 460.157 114.343 461.657C115.843 463.157 117.878 464 120 464V464Z" fill="black" id="id_155"></path>
<path d="M160 464H192C194.122 464 196.157 463.157 197.657 461.657C199.157 460.157 200 458.122 200 456C200 453.878 199.157 451.843 197.657 450.343C196.157 448.843 194.122 448 192 448H160C157.878 448 155.843 448.843 154.343 450.343C152.843 451.843 152 453.878 152 456C152 458.122 152.843 460.157 154.343 461.657C155.843 463.157 157.878 464 160 464Z" fill="black" id="id_156"></path>
</svg>